<svg width="300" height="300" viewBox="0 0 300 300" fill="none" xmlns="http://www.w3.org/2000/svg">
<path fill-rule="evenodd" clip-rule="evenodd" d="M203.066 21.9706L150.025 -6.10352e-05L97.0125 21.9583L106.768 45.51L150.025 27.5924L193.311 45.5222L203.066 21.9706Z" fill="#F7B63B"/>
<path fill-rule="evenodd" clip-rule="evenodd" d="M202.942 278.03L149.901 300L96.8887 278.042L106.644 254.49L149.9 272.408L193.187 254.478L202.942 278.03Z" fill="#4B90D1"/>
<path fill-rule="evenodd" clip-rule="evenodd" d="M96.9865 21.932L43.9449 43.9026L21.9866 96.9146L45.5374 106.67L63.4547 63.4133L106.742 45.4832L96.9865 21.932Z" fill="#FF9540"/>
<path fill-rule="evenodd" clip-rule="evenodd" d="M202.966 21.932L256.007 43.9024L277.966 96.9146L254.414 106.67L236.497 63.4134L193.21 45.4837L202.966 21.932Z" fill="#93D44C"/>
<path fill-rule="evenodd" clip-rule="evenodd" d="M21.9706 96.9503L0 149.992L21.9583 203.004L45.5102 193.248L27.5926 149.991L45.5222 106.706L21.9706 96.9503Z" fill="#FA4D7B"/>
<path fill-rule="evenodd" clip-rule="evenodd" d="M277.967 96.9499L299.938 149.991L277.979 203.004L254.427 193.248L272.345 149.991L254.415 106.705L277.967 96.9499Z" fill="#40A169"/>
<path fill-rule="evenodd" clip-rule="evenodd" d="M21.9279 203.027L43.8985 256.068L96.9104 278.027L106.666 254.475L63.4099 236.558L45.4799 193.271L21.9279 203.027Z" fill="#9A6DBF"/>
<path fill-rule="evenodd" clip-rule="evenodd" d="M277.958 203.028L255.987 256.069L202.975 278.028L193.22 254.476L236.476 236.558L254.406 193.272L277.958 203.028Z" fill="#429FC2"/>
<path fill-rule="evenodd" clip-rule="evenodd" d="M150.281 248.555L115.409 234.11L150.27 149.948L185.134 234.118L150.281 248.555Z" fill="#97BADB"/>
<path fill-rule="evenodd" clip-rule="evenodd" d="M150.262 51.368L185.134 65.8126L150.273 149.974L115.409 65.8046L150.262 51.368Z" fill="#FFDC46"/>
<path fill-rule="evenodd" clip-rule="evenodd" d="M219.987 219.647L185.114 234.091L150.253 149.929L234.424 184.794L219.987 219.647Z" fill="#91C2CF"/>
<path fill-rule="evenodd" clip-rule="evenodd" d="M80.5421 80.228L115.415 65.7834L150.276 149.946L66.1054 115.081L80.5421 80.228Z" fill="#FAB466"/>
<path fill-rule="evenodd" clip-rule="evenodd" d="M248.883 149.934L234.438 184.807L150.276 149.946L234.446 115.081L248.883 149.934Z" fill="#6ECC84"/>
<path fill-rule="evenodd" clip-rule="evenodd" d="M51.6944 149.954L66.1391 115.081L150.301 149.943L66.131 184.807L51.6944 149.954Z" fill="#ED748B"/>
<path fill-rule="evenodd" clip-rule="evenodd" d="M219.974 80.2144L234.419 115.087L150.256 149.948L185.121 65.7777L219.974 80.2144Z" fill="#B7E55C"/>
<path fill-rule="evenodd" clip-rule="evenodd" d="M80.5547 219.66L66.1101 184.788L150.272 149.927L115.408 234.097L80.5547 219.66Z" fill="#C1ADCC"/>
</svg>
