<svg width="198" height="249" viewBox="0 0 198 249" fill="none" xmlns="http://www.w3.org/2000/svg">
<path fill-rule="evenodd" clip-rule="evenodd" d="M151.369 21.9701L98.3284 0L45.3174 21.9579L55.0726 45.5091L98.3284 27.5919L141.614 45.5213L151.369 21.9701Z" fill="#F7B63B"/>
<path fill-rule="evenodd" clip-rule="evenodd" d="M98.5844 248.55L63.7126 234.106L98.573 149.945L133.437 234.114L98.5844 248.55Z" fill="#FFDC46"/>
<path fill-rule="evenodd" clip-rule="evenodd" d="M98.5648 51.367L133.437 65.8114L98.5761 149.972L63.7124 65.8033L98.5648 51.367Z" fill="#FFDC46"/>
<path fill-rule="evenodd" clip-rule="evenodd" d="M168.289 219.642L133.417 234.087L98.557 149.926L182.726 184.79L168.289 219.642Z" fill="#FFDC46"/>
<path fill-rule="evenodd" clip-rule="evenodd" d="M28.8464 80.2264L63.7185 65.782L98.5789 149.943L14.4101 115.079L28.8464 80.2264Z" fill="#FFDC46"/>
<path fill-rule="evenodd" clip-rule="evenodd" d="M197.184 149.931L182.739 184.803L98.5789 149.943L182.747 115.079L197.184 149.931Z" fill="#FFDC46"/>
<path fill-rule="evenodd" clip-rule="evenodd" d="M0.000286596 149.951L14.4446 115.079L98.6052 149.94L14.4367 184.803L0.000286596 149.951Z" fill="#FFDC46"/>
<path fill-rule="evenodd" clip-rule="evenodd" d="M168.276 80.2127L182.72 115.085L98.5599 149.945L133.424 65.7764L168.276 80.2127Z" fill="#FFDC46"/>
<path fill-rule="evenodd" clip-rule="evenodd" d="M28.8599 219.656L14.4155 184.784L98.5761 149.924L63.7123 234.092L28.8599 219.656Z" fill="#FFDC46"/>
<path d="M68.5578 140.468C75.8673 140.468 81.7928 134.542 81.7928 127.233C81.7928 119.923 75.8673 113.998 68.5578 113.998C61.2483 113.998 55.3228 119.923 55.3228 127.233C55.3228 134.542 61.2483 140.468 68.5578 140.468Z" fill="#664E27"/>
<path d="M129.439 140.468C136.748 140.468 142.674 134.542 142.674 127.233C142.674 119.923 136.748 113.998 129.439 113.998C122.129 113.998 116.204 119.923 116.204 127.233C116.204 134.542 122.129 140.468 129.439 140.468Z" fill="#664E27"/>
<path d="M143.997 162.967C143.997 160.85 142.674 158.203 139.233 157.409C129.968 155.556 116.469 153.968 98.9984 153.968C81.5281 153.968 68.0284 155.821 58.7639 157.409C55.3228 158.203 53.9993 160.85 53.9993 162.967C53.9993 182.291 68.8225 201.614 98.9984 201.614C129.174 201.614 143.997 182.291 143.997 162.967Z" fill="#664E27"/>
<path d="M132.615 163.762C126.792 162.703 114.616 161.115 98.9982 161.115C83.3809 161.115 71.2047 162.703 65.3813 163.762C61.9402 164.291 61.6755 165.614 61.9402 167.732C62.2049 168.791 62.2049 170.379 62.7343 171.967C62.999 173.555 63.5284 174.35 66.1754 174.085C71.2047 173.555 127.057 173.555 132.086 174.085C134.733 174.35 134.998 173.555 135.527 171.967C135.792 170.379 136.056 169.056 136.321 167.732C136.321 165.614 136.056 164.291 132.615 163.762" fill="white"/>
</svg>
