<svg width="243" height="243" viewBox="0 0 243 243" fill="none" xmlns="http://www.w3.org/2000/svg">
<path fill-rule="evenodd" clip-rule="evenodd" d="M90.5295 15.536L37.4863 37.5072L15.5273 90.5209L39.0795 100.276L56.9975 57.0185L100.285 39.0882L90.5295 15.536Z" fill="#FF9540"/>
<path fill-rule="evenodd" clip-rule="evenodd" d="M143.826 242.165L108.952 227.72L143.814 143.556L178.68 227.728L143.826 242.165Z" fill="#FAB466"/>
<path fill-rule="evenodd" clip-rule="evenodd" d="M143.806 44.9729L178.68 59.418L143.818 143.583L108.952 59.41L143.806 44.9729Z" fill="#FAB466"/>
<path fill-rule="evenodd" clip-rule="evenodd" d="M213.534 213.257L178.661 227.702L143.799 143.537L227.971 178.402L213.534 213.257Z" fill="#FAB466"/>
<path fill-rule="evenodd" clip-rule="evenodd" d="M74.0847 73.8338L108.958 59.3886L143.821 143.553L59.6477 108.688L74.0847 73.8338Z" fill="#FAB466"/>
<path fill-rule="evenodd" clip-rule="evenodd" d="M242.43 143.542L227.985 178.416L143.82 143.554L227.993 108.688L242.43 143.542Z" fill="#FAB466"/>
<path fill-rule="evenodd" clip-rule="evenodd" d="M45.237 143.562L59.682 108.688L143.847 143.55L59.6741 178.416L45.237 143.562Z" fill="#FAB466"/>
<path fill-rule="evenodd" clip-rule="evenodd" d="M213.521 73.82L227.966 108.694L143.802 143.556L178.667 59.383L213.521 73.82Z" fill="#FAB466"/>
<path fill-rule="evenodd" clip-rule="evenodd" d="M74.098 213.27L59.6529 178.397L143.818 143.534L108.952 227.707L74.098 213.27Z" fill="#FAB466"/>
<path d="M175.181 141.499C182.782 141.499 188.943 135.337 188.943 127.737C188.943 120.136 182.782 113.975 175.181 113.975C167.581 113.975 161.419 120.136 161.419 127.737C161.419 135.337 167.581 141.499 175.181 141.499Z" fill="#664E27"/>
<path d="M112.702 152.508C120.303 152.508 126.464 146.347 126.464 138.746C126.464 131.146 120.303 124.984 112.702 124.984C105.102 124.984 98.9403 131.146 98.9403 138.746C98.9403 146.347 105.102 152.508 112.702 152.508Z" fill="#664E27"/>
<path d="M177.658 174.802C161.694 170.674 144.63 173.701 131.143 183.059C127.84 185.536 134.171 194.069 137.473 191.867C146.281 185.536 160.593 181.408 175.181 185.261C178.759 186.087 181.787 176.178 177.658 174.802" fill="#664E27"/>
</svg>
