<svg width="198" height="249" viewBox="0 0 198 249" fill="none" xmlns="http://www.w3.org/2000/svg">
<path fill-rule="evenodd" clip-rule="evenodd" d="M151.251 226.669L98.2075 248.64L45.1937 226.681L54.9494 203.129L98.2074 221.047L141.495 203.116L151.251 226.669Z" fill="#4B90D1"/>
<path fill-rule="evenodd" clip-rule="evenodd" d="M98.5894 197.193L63.7158 182.748L98.578 98.5833L133.444 182.756L98.5894 197.193Z" fill="#97BADB"/>
<path fill-rule="evenodd" clip-rule="evenodd" d="M98.5699 -2.14121e-05L133.443 14.4451L98.5813 98.6099L63.7158 14.4371L98.5699 -2.14121e-05Z" fill="#97BADB"/>
<path fill-rule="evenodd" clip-rule="evenodd" d="M168.298 168.284L133.424 182.729L98.5621 98.5643L182.735 133.43L168.298 168.284Z" fill="#97BADB"/>
<path fill-rule="evenodd" clip-rule="evenodd" d="M28.848 28.8609L63.7218 14.4157L98.5841 98.5808L14.4109 63.7151L28.848 28.8609Z" fill="#97BADB"/>
<path fill-rule="evenodd" clip-rule="evenodd" d="M197.194 98.5694L182.749 133.443L98.5839 98.5809L182.757 63.7153L197.194 98.5694Z" fill="#97BADB"/>
<path fill-rule="evenodd" clip-rule="evenodd" d="M0.000133654 98.589L14.4452 63.7155L98.6102 98.5777L14.4373 133.443L0.000133654 98.589Z" fill="#97BADB"/>
<path fill-rule="evenodd" clip-rule="evenodd" d="M168.285 28.8472L182.73 63.7209L98.5651 98.5831L133.431 14.4101L168.285 28.8472Z" fill="#97BADB"/>
<path fill-rule="evenodd" clip-rule="evenodd" d="M28.8613 168.298L14.4162 133.424L98.5812 98.5619L63.7156 182.735L28.8613 168.298Z" fill="#97BADB"/>
<path d="M121.209 130.997C107.162 124.625 90.5133 124.625 76.466 130.997C73.0843 132.527 77.2464 141.702 80.8883 139.918C90.2532 135.585 104.04 134.056 117.047 139.918C120.429 141.447 124.851 132.781 121.209 130.997Z" fill="#664E27"/>
<path d="M153.219 91.3956C153.219 104.551 143.314 115.075 130.933 115.075C118.552 115.075 108.646 104.551 108.646 91.3956C108.646 78.2405 118.552 67.7163 130.933 67.7163C143.314 67.7163 153.219 78.2405 153.219 91.3956Z" fill="white"/>
<path d="M132.326 106.718C140.788 106.718 147.648 99.8578 147.648 91.3958C147.648 82.9337 140.788 76.0739 132.326 76.0739C123.864 76.0739 117.004 82.9337 117.004 91.3958C117.004 99.8578 123.864 106.718 132.326 106.718Z" fill="#664E27"/>
<path d="M135.53 111.183C139.486 111.183 142.693 107.518 142.693 102.997C142.693 98.4755 139.486 94.8102 135.53 94.8102C131.573 94.8102 128.366 98.4755 128.366 102.997C128.366 107.518 131.573 111.183 135.53 111.183Z" fill="white"/>
<path d="M125.808 96.3453C128.069 96.3453 129.901 94.169 129.901 91.4845C129.901 88.8 128.069 86.6238 125.808 86.6238C123.548 86.6238 121.715 88.8 121.715 91.4845C121.715 94.169 123.548 96.3453 125.808 96.3453Z" fill="white"/>
<path d="M87.9452 91.4843C87.9452 104.276 77.712 114.509 64.9206 114.509C52.1291 114.509 41.896 104.276 41.896 91.4843C41.896 78.6929 52.1291 68.4597 64.9206 68.4597C77.712 68.4597 87.9452 78.6929 87.9452 91.4843Z" fill="white"/>
<path d="M65.4665 106.718C73.9285 106.718 80.7884 99.8578 80.7884 91.3958C80.7884 82.9337 73.9285 76.0739 65.4665 76.0739C57.0044 76.0739 50.1445 82.9337 50.1445 91.3958C50.1445 99.8578 57.0044 106.718 65.4665 106.718Z" fill="#664E27"/>
<path d="M69.0138 111.183C72.9699 111.183 76.177 107.518 76.177 102.997C76.177 98.4754 72.9699 94.8102 69.0138 94.8102C65.0577 94.8102 61.8506 98.4754 61.8506 102.997C61.8506 107.518 65.0577 111.183 69.0138 111.183Z" fill="white"/>
<path d="M59.2925 96.345C61.5531 96.345 63.3857 94.1688 63.3857 91.4843C63.3857 88.7998 61.5531 86.6235 59.2925 86.6235C57.0318 86.6235 55.1992 88.7998 55.1992 91.4843C55.1992 94.1688 57.0318 96.345 59.2925 96.345Z" fill="white"/>
<path d="M136.505 103.932C124.073 121.418 117.004 137.362 117.004 150.476C117.004 161.791 125.779 170.791 136.505 170.791C147.23 170.791 156.005 161.791 156.005 150.476C156.005 137.362 148.693 121.161 136.505 103.932Z" fill="#65B1EF"/>
<path d="M152.06 64.7792C143.825 58.3419 132.759 55.4809 121.951 57.3883C120.407 57.6267 119.12 52.6199 120.921 52.1431C133.274 49.9973 146.141 53.3352 155.662 60.7261C157.207 61.9182 153.089 65.7329 152.06 64.7792ZM73.0556 56.9114C62.2472 55.2425 51.1815 57.8651 42.9465 64.3024C41.9172 65.256 37.7997 61.4414 39.3437 60.2493C48.8654 52.6199 61.7325 49.5205 74.085 51.6663C75.8864 52.1431 74.5996 57.1499 73.0556 56.9114" fill="#917524"/>
</svg>
