<svg width="249" height="198" viewBox="0 0 249 198" fill="none" xmlns="http://www.w3.org/2000/svg">
<path fill-rule="evenodd" clip-rule="evenodd" d="M21.9703 45.5816L0 98.6226L21.9582 151.634L45.51 141.879L27.5927 98.6226L45.5221 55.3371L21.9703 45.5816Z" fill="#FA4D7B"/>
<path fill-rule="evenodd" clip-rule="evenodd" d="M150.279 197.185L115.407 182.74L150.268 98.5792L185.132 182.749L150.279 197.185Z" fill="#ED748B"/>
<path fill-rule="evenodd" clip-rule="evenodd" d="M150.26 -6.0669e-05L185.132 14.4444L150.271 98.6057L115.407 14.4364L150.26 -6.0669e-05Z" fill="#ED748B"/>
<path fill-rule="evenodd" clip-rule="evenodd" d="M219.985 168.277L185.113 182.722L150.252 98.5601L234.422 133.424L219.985 168.277Z" fill="#ED748B"/>
<path fill-rule="evenodd" clip-rule="evenodd" d="M80.5409 28.8597L115.413 14.4151L150.274 98.5766L66.1044 63.7124L80.5409 28.8597Z" fill="#ED748B"/>
<path fill-rule="evenodd" clip-rule="evenodd" d="M248.88 98.5653L234.435 133.438L150.274 98.5768L234.443 63.7127L248.88 98.5653Z" fill="#ED748B"/>
<path fill-rule="evenodd" clip-rule="evenodd" d="M51.6943 98.5849L66.1388 63.7128L150.3 98.5736L66.1308 133.438L51.6943 98.5849Z" fill="#ED748B"/>
<path fill-rule="evenodd" clip-rule="evenodd" d="M219.972 28.846L234.417 63.7182L150.255 98.579L185.119 14.4095L219.972 28.846Z" fill="#ED748B"/>
<path fill-rule="evenodd" clip-rule="evenodd" d="M80.5543 168.291L66.1097 133.419L150.271 98.5578L115.407 182.727L80.5543 168.291Z" fill="#ED748B"/>
<path d="M175.174 144.095C159.936 131.484 143.122 131.484 127.884 144.095C126.045 145.671 124.469 143.044 125.782 140.679C130.511 131.747 139.707 123.603 151.529 123.603C163.351 123.603 172.809 131.747 177.276 140.679C178.589 142.781 177.013 145.408 175.174 144.095Z" fill="#664E27"/>
<path d="M94.2556 78.9397C90.3148 91.2876 95.8319 105.212 108.18 110.729C120.265 116.509 134.452 112.042 141.545 101.008L123.418 80.7787L94.2556 78.9397Z" fill="white"/>
<path d="M104.764 81.3046C101.086 88.9235 104.502 98.1187 112.121 101.534C119.74 105.212 128.935 101.797 132.35 94.1779C134.977 89.1862 107.129 76.3129 104.764 81.3046" fill="#664E27"/>
<path d="M94.2554 78.9401C98.4589 76.3129 103.451 74.9993 108.442 74.9993C113.434 74.9993 118.426 76.3129 123.155 78.4146C127.621 80.5164 131.824 83.6691 135.24 87.3471C138.392 91.288 141.02 95.7542 141.545 100.746C138.13 97.3305 134.714 94.4406 131.036 91.8134C127.358 89.1862 123.68 87.0844 120.002 85.5081C116.061 83.6691 112.12 82.3554 107.917 81.0418C103.188 80.2537 98.9843 79.4655 94.2554 78.9401" fill="#664E27"/>
<path d="M208.801 78.9397C212.742 91.2876 207.225 105.212 194.877 110.729C182.792 116.509 168.605 112.042 161.512 101.008L179.639 80.7787L208.801 78.9397Z" fill="white"/>
<path d="M198.293 81.3046C201.971 88.9235 198.556 98.1187 190.937 101.534C183.318 105.212 174.123 101.797 170.707 94.1779C168.08 89.1862 195.929 76.3129 198.293 81.3046" fill="#664E27"/>
<path d="M208.801 78.9401C204.598 76.3129 199.606 74.9993 194.615 74.9993C189.623 74.9993 184.631 76.3129 179.902 78.4146C175.436 80.5164 171.232 83.6691 167.817 87.3471C164.664 91.288 162.037 95.7542 161.512 100.746C164.927 97.3305 168.342 94.4406 172.021 91.8134C175.699 89.1862 179.377 87.0844 183.055 85.5081C186.996 83.6691 190.936 82.3554 195.14 81.0418C199.869 80.2537 204.072 79.4655 208.801 78.9401" fill="#664E27"/>
</svg>
