<svg width="243" height="243" viewBox="0 0 243 243" fill="none" xmlns="http://www.w3.org/2000/svg">
<path fill-rule="evenodd" clip-rule="evenodd" d="M15.5357 151.662L37.5065 204.704L90.5193 226.663L100.275 203.111L57.0173 185.193L39.0874 141.907L15.5357 151.662Z" fill="#9A6DBF"/>
<path fill-rule="evenodd" clip-rule="evenodd" d="M143.886 197.189L109.013 182.745L143.875 98.5814L178.74 182.753L143.886 197.189Z" fill="#C1ADCC"/>
<path fill-rule="evenodd" clip-rule="evenodd" d="M143.867 5.12985e-05L178.74 14.4449L143.878 98.608L109.013 14.4368L143.867 5.12985e-05Z" fill="#C1ADCC"/>
<path fill-rule="evenodd" clip-rule="evenodd" d="M213.593 168.281L178.72 182.726L143.859 98.5624L228.03 133.427L213.593 168.281Z" fill="#C1ADCC"/>
<path fill-rule="evenodd" clip-rule="evenodd" d="M74.1461 28.8604L109.019 14.4155L143.881 98.5789L59.7093 63.7139L74.1461 28.8604Z" fill="#C1ADCC"/>
<path fill-rule="evenodd" clip-rule="evenodd" d="M242.489 98.5675L228.044 133.441L143.881 98.579L228.052 63.714L242.489 98.5675Z" fill="#C1ADCC"/>
<path fill-rule="evenodd" clip-rule="evenodd" d="M45.2989 98.5871L59.7437 63.7142L143.907 98.5758L59.7358 133.441L45.2989 98.5871Z" fill="#C1ADCC"/>
<path fill-rule="evenodd" clip-rule="evenodd" d="M213.58 28.8467L228.025 63.7197L143.862 98.5813L178.727 14.4099L213.58 28.8467Z" fill="#C1ADCC"/>
<path fill-rule="evenodd" clip-rule="evenodd" d="M74.1594 168.295L59.7146 133.422L143.878 98.5599L109.013 182.731L74.1594 168.295Z" fill="#C1ADCC"/>
<path d="M112.638 99.2741C120.169 99.2741 126.274 93.1688 126.274 85.6375C126.274 78.1063 120.169 72.001 112.638 72.001C105.107 72.001 99.0013 78.1063 99.0013 85.6375C99.0013 93.1688 105.107 99.2741 112.638 99.2741Z" fill="#664E27"/>
<path d="M175.366 99.2741C182.897 99.2741 189.003 93.1688 189.003 85.6375C189.003 78.1063 182.897 72.001 175.366 72.001C167.835 72.001 161.729 78.1063 161.729 85.6375C161.729 93.1688 167.835 99.2741 175.366 99.2741Z" fill="#664E27"/>
<path d="M119.456 142.911C135.274 129.82 152.729 129.82 168.548 142.911C170.457 144.547 172.093 141.82 170.729 139.366C165.82 130.093 156.275 121.638 144.002 121.638C131.729 121.638 121.911 130.093 117.274 139.366C115.911 141.82 117.547 144.547 119.456 142.911" fill="#664E27"/>
</svg>
