<svg width="242" height="243" viewBox="0 0 242 243" fill="none" xmlns="http://www.w3.org/2000/svg">
<path fill-rule="evenodd" clip-rule="evenodd" d="M226.264 151.661L204.293 204.703L151.281 226.662L141.525 203.11L184.782 185.192L202.712 141.906L226.264 151.661Z" fill="#429FC2"/>
<path fill-rule="evenodd" clip-rule="evenodd" d="M98.5871 197.189L63.7144 182.744L98.5757 98.581L133.44 182.752L98.5871 197.189Z" fill="#91C1CF"/>
<path fill-rule="evenodd" clip-rule="evenodd" d="M98.5677 -8.5203e-06L133.44 14.4447L98.5791 98.6075L63.7144 14.4367L98.5677 -8.5203e-06Z" fill="#91C1CF"/>
<path fill-rule="evenodd" clip-rule="evenodd" d="M168.294 168.28L133.421 182.725L98.5597 98.562L182.731 133.427L168.294 168.28Z" fill="#91C1CF"/>
<path fill-rule="evenodd" clip-rule="evenodd" d="M28.8473 28.8602L63.7203 14.4154L98.5818 98.5784L14.4106 63.7136L28.8473 28.8602Z" fill="#91C1CF"/>
<path fill-rule="evenodd" clip-rule="evenodd" d="M197.189 98.5671L182.744 133.44L98.5815 98.5786L182.753 63.7138L197.189 98.5671Z" fill="#91C1CF"/>
<path fill-rule="evenodd" clip-rule="evenodd" d="M0.000143766 98.5866L14.4449 63.7139L98.6079 98.5754L14.4369 133.44L0.000143766 98.5866Z" fill="#91C1CF"/>
<path fill-rule="evenodd" clip-rule="evenodd" d="M168.281 28.8465L182.726 63.7193L98.5627 98.5808L133.428 14.4098L168.281 28.8465Z" fill="#91C1CF"/>
<path fill-rule="evenodd" clip-rule="evenodd" d="M28.8606 168.294L14.4158 133.421L98.5787 98.5596L63.714 182.731L28.8606 168.294Z" fill="#91C1CF"/>
<path d="M99.2062 150.639C109.928 150.639 118.62 141.947 118.62 131.225C118.62 120.503 109.928 111.812 99.2062 111.812C88.4844 111.812 79.7927 120.503 79.7927 131.225C79.7927 141.947 88.4844 150.639 99.2062 150.639Z" fill="#664E27"/>
<path d="M66.4806 87.9608C73.3732 87.9608 78.9607 82.3732 78.9607 75.4807C78.9607 68.5881 73.3732 63.0005 66.4806 63.0005C59.588 63.0005 54.0005 68.5881 54.0005 75.4807C54.0005 82.3732 59.588 87.9608 66.4806 87.9608Z" fill="#664E27"/>
<path d="M128.881 87.9608C135.774 87.9608 141.361 82.3732 141.361 75.4807C141.361 68.5881 135.774 63.0005 128.881 63.0005C121.989 63.0005 116.401 68.5881 116.401 75.4807C116.401 82.3732 121.989 87.9608 128.881 87.9608Z" fill="#664E27"/>
</svg>
