<svg width="242" height="243" viewBox="0 0 242 243" fill="none" xmlns="http://www.w3.org/2000/svg">
<path fill-rule="evenodd" clip-rule="evenodd" d="M151.273 15.6677L204.314 37.6384L226.273 90.651L202.721 100.407L184.803 57.1494L141.517 39.2197L151.273 15.6677Z" fill="#93D44C"/>
<path fill-rule="evenodd" clip-rule="evenodd" d="M98.587 242.293L63.7142 227.848L98.5756 143.685L133.44 227.856L98.587 242.293Z" fill="#B7E55C"/>
<path fill-rule="evenodd" clip-rule="evenodd" d="M98.5675 45.1041L133.44 59.5489L98.5788 143.712L63.7142 59.5409L98.5675 45.1041Z" fill="#B7E55C"/>
<path fill-rule="evenodd" clip-rule="evenodd" d="M168.294 213.384L133.421 227.829L98.5597 143.666L182.731 178.531L168.294 213.384Z" fill="#B7E55C"/>
<path fill-rule="evenodd" clip-rule="evenodd" d="M28.8472 73.9644L63.7202 59.5195L98.5817 143.683L14.4105 108.818L28.8472 73.9644Z" fill="#B7E55C"/>
<path fill-rule="evenodd" clip-rule="evenodd" d="M197.189 143.671L182.744 178.544L98.5814 143.683L182.752 108.818L197.189 143.671Z" fill="#B7E55C"/>
<path fill-rule="evenodd" clip-rule="evenodd" d="M0.000106877 143.691L14.4448 108.818L98.6078 143.679L14.4369 178.544L0.000106877 143.691Z" fill="#B7E55C"/>
<path fill-rule="evenodd" clip-rule="evenodd" d="M168.281 73.9507L182.726 108.823L98.5626 143.685L133.427 59.5139L168.281 73.9507Z" fill="#B7E55C"/>
<path fill-rule="evenodd" clip-rule="evenodd" d="M28.8606 213.398L14.4158 178.525L98.5787 143.664L63.714 227.835L28.8606 213.398Z" fill="#B7E55C"/>
<path opacity="0.8" d="M143.196 172.035C153.582 172.035 162.002 163.616 162.002 153.229C162.002 142.843 153.582 134.423 143.196 134.423C132.809 134.423 124.39 142.843 124.39 153.229C124.39 163.616 132.809 172.035 143.196 172.035Z" fill="#FF717F"/>
<path opacity="0.8" d="M54.8064 172.035C65.1926 172.035 73.6124 163.616 73.6124 153.229C73.6124 142.843 65.1926 134.423 54.8064 134.423C44.4201 134.423 36.0004 142.843 36.0004 153.229C36.0004 163.616 44.4201 172.035 54.8064 172.035Z" fill="#FF717F"/>
<path d="M128.619 163.337C109.578 176.737 88.4217 176.502 69.3806 163.337C67.0298 161.692 65.1492 164.513 66.5597 167.099C72.4366 176.502 83.9552 185.199 99 185.199C114.045 185.199 125.564 176.737 131.44 167.099C132.851 164.513 130.97 161.692 128.619 163.337" fill="#664E27"/>
<path d="M90.7737 131.837C86.3073 119.849 79.7252 113.737 73.1431 113.737C66.561 113.737 59.9789 119.849 55.5125 131.837C55.0423 133.013 57.3931 135.128 58.5685 133.953C62.7998 129.487 67.9715 127.606 73.1431 127.606C78.3148 127.606 83.4864 129.487 87.7178 133.953C89.1282 135.128 91.2439 133.013 90.7737 131.837Z" fill="#664E27"/>
<path d="M142.255 131.837C137.789 119.849 131.207 113.737 124.625 113.737C118.043 113.737 111.461 119.849 106.994 131.837C106.524 133.013 108.875 135.128 110.05 133.953C114.282 129.487 119.453 127.606 124.625 127.606C129.796 127.606 134.968 129.487 139.199 133.953C140.375 135.128 142.726 133.013 142.255 131.837Z" fill="#664E27"/>
</svg>
