<svg width="249" height="198" viewBox="0 0 249 198" fill="none" xmlns="http://www.w3.org/2000/svg">
<path fill-rule="evenodd" clip-rule="evenodd" d="M226.279 45.5831L248.25 98.6262L226.291 151.64L202.738 141.884L220.656 98.6264L202.726 55.3389L226.279 45.5831Z" fill="#40A169"/>
<path fill-rule="evenodd" clip-rule="evenodd" d="M98.5891 197.193L63.7156 182.748L98.5777 98.583L133.443 182.756L98.5891 197.193Z" fill="#6ECC83"/>
<path fill-rule="evenodd" clip-rule="evenodd" d="M98.5697 -2.08277e-05L133.443 14.445L98.581 98.6096L63.7156 14.437L98.5697 -2.08277e-05Z" fill="#6ECC83"/>
<path fill-rule="evenodd" clip-rule="evenodd" d="M168.297 168.284L133.424 182.729L98.5618 98.564L182.735 133.429L168.297 168.284Z" fill="#6ECC83"/>
<path fill-rule="evenodd" clip-rule="evenodd" d="M28.8479 28.8608L63.7216 14.4157L98.5838 98.5804L14.4109 63.7149L28.8479 28.8608Z" fill="#6ECC83"/>
<path fill-rule="evenodd" clip-rule="evenodd" d="M197.193 98.5691L182.748 133.443L98.5836 98.5806L182.756 63.7151L197.193 98.5691Z" fill="#6ECC83"/>
<path fill-rule="evenodd" clip-rule="evenodd" d="M0.00020038 98.5887L14.4452 63.7153L98.61 98.5774L14.4373 133.443L0.00020038 98.5887Z" fill="#6ECC83"/>
<path fill-rule="evenodd" clip-rule="evenodd" d="M168.284 28.8471L182.73 63.7207L98.5648 98.5829L133.43 14.4101L168.284 28.8471Z" fill="#6ECC83"/>
<path fill-rule="evenodd" clip-rule="evenodd" d="M28.8612 168.297L14.4161 133.424L98.5808 98.5616L63.7153 182.734L28.8612 168.297Z" fill="#6ECC83"/>
<path d="M67.6383 93.2755C75.1697 93.2755 81.2751 87.1701 81.2751 79.6387C81.2751 72.1073 75.1697 66.002 67.6383 66.002C60.107 66.002 54.0016 72.1073 54.0016 79.6387C54.0016 87.1701 60.107 93.2755 67.6383 93.2755Z" fill="#664E27"/>
<path d="M130.367 93.2755C137.899 93.2755 144.004 87.1701 144.004 79.6387C144.004 72.1073 137.899 66.002 130.367 66.002C122.836 66.002 116.731 72.1073 116.731 79.6387C116.731 87.1701 122.836 93.2755 130.367 93.2755Z" fill="#664E27"/>
<path d="M136.368 128.731C132.277 118.913 122.458 112.367 99.003 112.367C75.5478 112.367 65.7293 118.913 61.6383 128.731C59.4564 133.913 62.4565 139.641 62.4565 139.641C63.5475 142.913 68.4567 145.095 99.003 145.095C129.277 145.095 134.186 142.913 135.55 139.641C135.55 139.641 138.55 133.913 136.368 128.731" fill="#664E27"/>
<path d="M126.276 126.004C126.549 125.186 126.276 124.367 125.731 123.822C125.731 123.822 119.731 117.822 99.0028 117.822C78.5476 117.822 72.2747 123.822 72.2747 123.822C71.7293 124.095 71.7292 125.186 71.7292 126.004L72.2747 127.64C72.5475 128.458 73.0929 129.004 73.9111 129.004H124.094C124.64 129.004 125.458 128.458 125.731 127.64L126.276 126.004Z" fill="white"/>
</svg>
