<svg width="60" height="60" viewBox="0 0 60 60" fill="none" xmlns="http://www.w3.org/2000/svg">
<circle cx="30" cy="30" r="30" fill="#C61C1C"/>
<path d="M45.6302 19.1243C39.7537 18.5419 33.8419 18.2419 27.9478 18.2419C24.4537 18.2419 20.9596 18.4184 17.4655 18.7714L13.8655 19.1243" stroke="white" stroke-width="1.5" stroke-linecap="round" stroke-linejoin="round"/>
<path d="M23.5714 17.342L23.9596 15.0302C24.242 13.3538 24.4538 12.1008 27.4361 12.1008H32.0597C35.042 12.1008 35.2714 13.4244 35.5361 15.0479L35.9244 17.342" stroke="white" stroke-width="1.5" stroke-linecap="round" stroke-linejoin="round"/>
<path d="M41.8361 24.7008L40.6891 42.4714C40.495 45.242 40.3361 47.3949 35.4126 47.3949H24.0832C19.1597 47.3949 19.0008 45.242 18.8067 42.4714L17.6597 24.7008" stroke="white" stroke-width="1.5" stroke-linecap="round" stroke-linejoin="round"/>
<path d="M26.8008 37.6891H32.6773" stroke="white" stroke-width="1.5" stroke-linecap="round" stroke-linejoin="round"/>
<path d="M25.3362 30.6302H34.1597" stroke="white" stroke-width="1.5" stroke-linecap="round" stroke-linejoin="round"/>
</svg>
